<?xml version="1.0" encoding="UTF-8"?>
<svg version="1.1" xmlns="http://www.w3.org/2000/svg" width="400" height="400">
<path d="M0 0 C132 0 264 0 400 0 C400 132 400 264 400 400 C268 400 136 400 0 400 C0 268 0 136 0 0 Z " fill="#958EEA" transform="translate(0,0)"/>
<path d="M0 0 C0.99 0 1.98 0 3 0 C5 0 7 0 9 0 C9.11662261 4.04142215 9.1873935 8.08240865 9.25 12.125 C9.30027344 13.83816406 9.30027344 13.83816406 9.3515625 15.5859375 C9.47509797 26.20998773 9.47509797 26.20998773 5 31 C1.06931221 32.96534389 -3.71439252 32.46844159 -8 32 C-10.6875 30.1875 -10.6875 30.1875 -12 28 C-12 27.01 -12 26.02 -12 25 C-9.625 24.875 -9.625 24.875 -7 25 C-6.34 25.66 -5.68 26.32 -5 27 C-1.40320934 26.67673447 -1.40320934 26.67673447 2 26 C2 24.68 2 23.36 2 22 C1.34 22.33 0.68 22.66 0 23 C-6.93838863 23.79620853 -6.93838863 23.79620853 -11 20.75 C-14.26808429 16.09242408 -13.92117302 10.39867793 -13 5 C-9.49409329 -0.69709841 -6.14005319 -0.49516558 0 0 Z " fill="#FACB11" transform="translate(272,212)"/>
<path d="M0 0 C3.24388633 2.65408881 5.41413808 4.57329398 6.25390625 8.765625 C6.382739 14.77781991 5.81220348 19.17740312 1.80078125 23.83984375 C-1.6046614 26.18149098 -4.7357241 26.08633214 -8.76171875 25.78125 C-12.0509886 25.07898831 -13.34107768 23.99884814 -15.25 21.25 C-15.9925 20.734375 -16.735 20.21875 -17.5 19.6875 C-20.01778032 16.1805917 -19.85977652 13.18648559 -19.70703125 8.94921875 C-18.87588073 4.04045801 -16.34399716 1.78559792 -12.375 -1.125 C-7.67328643 -2.50785693 -4.31928681 -2.32576982 0 0 Z " fill="#EBAC3D" transform="translate(247.25,202.75)"/>
<path d="M0 0 C2.31 0 4.62 0 7 0 C9.64 6.93 12.28 13.86 15 21 C16.32 14.07 17.64 7.14 19 0 C20.98 0 22.96 0 25 0 C21.83112696 22.80127986 21.83112696 22.80127986 20 32 C17.69 32 15.38 32 13 32 C11.65791246 28.89954577 10.32786246 25.79407011 9 22.6875 C8.6184375 21.80642578 8.236875 20.92535156 7.84375 20.01757812 C7.4828125 19.17001953 7.121875 18.32246094 6.75 17.44921875 C6.41484375 16.66893311 6.0796875 15.88864746 5.734375 15.0847168 C5 13 5 13 5 10 C4.34 10 3.68 10 3 10 C2.95101563 10.83402344 2.90203125 11.66804687 2.8515625 12.52734375 C2.40682732 19.22137501 1.6531796 25.49749359 0 32 C-1.98 32 -3.96 32 -6 32 C-5.22912512 25.31105443 -4.15072171 18.69582694 -3 12.0625 C-2.82210938 11.00998047 -2.64421875 9.95746094 -2.4609375 8.87304688 C-2.28820312 7.87466797 -2.11546875 6.87628906 -1.9375 5.84765625 C-1.70353516 4.4865271 -1.70353516 4.4865271 -1.46484375 3.09790039 C-1 1 -1 1 0 0 Z " fill="#8855BD" transform="translate(286,154)"/>
<path d="M0 0 C2.31 0 4.62 0 7 0 C7.40992187 1.10859375 7.81984375 2.2171875 8.2421875 3.359375 C8.78634101 4.82296029 9.33061835 6.28649955 9.875 7.75 C10.14441406 8.47960937 10.41382812 9.20921875 10.69140625 9.9609375 C11.97365019 13.40110416 13.24617871 16.76479567 15 20 C16.56175361 15.58634848 17.6738863 11.20763873 18.625 6.625 C18.88539063 5.37976563 19.14578125 4.13453125 19.4140625 2.8515625 C19.70410156 1.44003906 19.70410156 1.44003906 20 0 C21.65 0 23.3 0 25 0 C24.6059944 10.97305596 22.42355426 21.3250889 20 32 C17.69 32 15.38 32 13 32 C10.36 25.07 7.72 18.14 5 11 C3.42871541 15.71385376 2.54648633 19.466197 1.9375 24.3125 C1.10526316 30.89473684 1.10526316 30.89473684 0 32 C-1.66617115 32.04063832 -3.33388095 32.042721 -5 32 C-4.53865618 24.92075856 -3.59618837 17.9416223 -2.5 10.9375 C-2.36940186 10.0921167 -2.23880371 9.2467334 -2.10424805 8.37573242 C-1.97703369 7.58013916 -1.84981934 6.7845459 -1.71875 5.96484375 C-1.54762695 4.89157837 -1.54762695 4.89157837 -1.37304688 3.79663086 C-1 2 -1 2 0 0 Z " fill="#8654BD" transform="translate(113,154)"/>
<path d="M0 0 C3.74030185 1.60298651 4.73158465 2.59737698 7 6 C7 7.32 7 8.64 7 10 C4.25 10.25 4.25 10.25 1 10 C0.360625 9.34 -0.27875 8.68 -0.9375 8 C-2.94422528 5.67318703 -2.94422528 5.67318703 -6.4375 5.4375 C-10.84536069 6.133478 -12.19996287 7.62348463 -15 11 C-15.33 11.33 -15.66 11.66 -16 12 C-16.15135944 13.7872057 -16.22175778 15.58161876 -16.25 17.375 C-16.27578125 18.35210937 -16.3015625 19.32921875 -16.328125 20.3359375 C-16.21321765 23.00689718 -16.21321765 23.00689718 -14.69921875 24.83203125 C-11.87779981 26.77135139 -9.31216898 26.29054114 -6 26 C-3.64539322 25.32575833 -3.64539322 25.32575833 -2 24 C-1.67 23.01 -1.34 22.02 -1 21 C-2.98 20.67 -4.96 20.34 -7 20 C-6.67 18.35 -6.34 16.7 -6 15 C-1.71 15 2.58 15 7 15 C6.01 20.61 5.02 26.22 4 32 C2.35 32 0.7 32 -1 32 C-1.33 31.34 -1.66 30.68 -2 30 C-2.55945313 30.32226562 -3.11890625 30.64453125 -3.6953125 30.9765625 C-7.68586392 32.74863788 -11.72171091 32.5659469 -16 32 C-19.11068509 30.67842637 -21.45144508 29.09710984 -23 26 C-23.93462979 14.04899609 -23.93462979 14.04899609 -21.375 8.4375 C-14.48622889 1.36744544 -9.96948857 -0.8211862 0 0 Z " fill="#8953BC" transform="translate(245,154)"/>
<path d="M0 0 C0.33 0.66 0.66 1.32 1 2 C1.99 2.33 2.98 2.66 4 3 C5.421875 5.109375 5.421875 5.109375 6.75 7.75 C7.19859375 8.61109375 7.6471875 9.4721875 8.109375 10.359375 C9.16895785 13.50094521 9.09343133 14.88641751 8 18 C6.36328125 20.46484375 6.36328125 20.46484375 4.3125 22.9375 C3.64863281 23.75089844 2.98476562 24.56429687 2.30078125 25.40234375 C1.54152344 26.25957031 0.78226563 27.11679688 0 28 C-0.61536621 28.81162598 -0.61536621 28.81162598 -1.24316406 29.63964844 C-3.41421676 32.24460394 -4.96314337 33.79056335 -8.35327148 34.4753418 C-11.05191872 34.58979617 -13.67838945 34.52502541 -16.375 34.375 C-17.30183594 34.34792969 -18.22867188 34.32085937 -19.18359375 34.29296875 C-21.4581663 34.22262115 -23.72784319 34.12428347 -26 34 C-26.33 33.34 -26.66 32.68 -27 32 C-20.07 32 -13.14 32 -6 32 C-5.67 30.02 -5.34 28.04 -5 26 C-9.95 26 -14.9 26 -20 26 C-19.67 23.69 -19.34 21.38 -19 19 C-14.38 19 -9.76 19 -5 19 C-4.67 17.02 -4.34 15.04 -4 13 C-8.29 13 -12.58 13 -17 13 C-16.67 10.69 -16.34 8.38 -16 6 C-11.05 6 -6.1 6 -1 6 C-0.67 4.02 -0.34 2.04 0 0 Z " fill="#C4AEE2" transform="translate(166,154)"/>
<path d="M0 0 C6.93 0 13.86 0 21 0 C21 1.98 21 3.96 21 6 C16.05 6 11.1 6 6 6 C5.67 8.31 5.34 10.62 5 13 C9.29 13 13.58 13 18 13 C17.67 14.98 17.34 16.96 17 19 C12.38 19 7.76 19 3 19 C2.67 21.31 2.34 23.62 2 26 C6.95 26 11.9 26 17 26 C16.67 27.98 16.34 29.96 16 32 C9.07 32 2.14 32 -5 32 C-4.35572303 27.6039334 -3.70964282 23.20814483 -3.0625 18.8125 C-2.88009766 17.56662109 -2.69769531 16.32074219 -2.50976562 15.03710938 C-2.33251953 13.83505859 -2.15527344 12.63300781 -1.97265625 11.39453125 C-1.81031494 10.28956299 -1.64797363 9.18459473 -1.48071289 8.04614258 C-1.05561147 5.35239426 -0.53482532 2.67412661 0 0 Z " fill="#8E5BBF" transform="translate(144,154)"/>
<path d="M0 0 C3.60578196 1.80289098 6.4317423 3.88140136 9 7 C10.33823529 11.32352941 10.33823529 11.32352941 9 14 C5.56528233 14.33142013 2.17310556 14.46573403 -1.2734375 14.56640625 C-3.1861079 14.64581314 -5.09453191 14.81613904 -7 15 C-7.33 15.66 -7.66 16.32 -8 17 C-5.03 17.33 -2.06 17.66 1 18 C1.33 17.34 1.66 16.68 2 16 C3.98 16 5.96 16 8 16 C7.72608098 19.2870282 7.18168017 20.78993231 5 23.3125 C0.84032896 25.65231496 -2.34389992 26.10235482 -7 25 C-10.54834545 23.26695048 -12.90687746 21.36574104 -15 18 C-15.64707598 13.90864555 -15.48505934 10.10279354 -15 6 C-14.34 6 -13.68 6 -13 6 C-13 5.01 -13 4.02 -13 3 C-5.65873016 -1.8452381 -5.65873016 -1.8452381 0 0 Z " fill="#F6F2F9" transform="translate(162,211)"/>
<path d="M0 0 C2.31 0 4.62 0 7 0 C7.67119549 1.4562545 8.33681807 2.91507867 9 4.375 C9.556875 5.59316406 9.556875 5.59316406 10.125 6.8359375 C11 9 11 9 11 11 C14.21992528 8.70005337 16.30926856 6.6091602 18.3125 3.25 C19.81787844 0.98710741 20.40118685 0.1284767 23.09375 -0.44921875 C25.3125 -0.4375 25.3125 -0.4375 29 0 C25.56517814 4.68938446 22.09892735 9.12564481 18.00390625 13.26171875 C16.77566496 15.01126839 16.77566496 15.01126839 17.1796875 17.3828125 C18.0561536 20.17915672 19.18874083 22.60044925 20.5625 25.1875 C23 29.79320113 23 29.79320113 23 32 C21.02 32 19.04 32 17 32 C16.16151196 30.54462432 15.32936066 29.08559627 14.5 27.625 C14.0359375 26.81289062 13.571875 26.00078125 13.09375 25.1640625 C12 23 12 23 12 21 C11.34 21 10.68 21 10 21 C9.72542969 21.58265625 9.45085937 22.1653125 9.16796875 22.765625 C7.30421852 26.33106022 5.12771211 29.43711175 2 32 C-1.875 32.4375 -1.875 32.4375 -5 32 C-2.94012446 27.16327567 0.73314025 23.62966122 4.19921875 19.75390625 C6.23956223 17.20584642 6.23956223 17.20584642 5.9296875 14.546875 C4.83788621 11.55588996 3.69199869 8.61466362 2.4375 5.6875 C1.98246094 4.61886719 1.52742187 3.55023438 1.05859375 2.44921875 C0.70925781 1.64097656 0.35992187 0.83273438 0 0 Z " fill="#8754BC" transform="translate(168,154)"/>
<path d="M0 0 C0.87454834 0.00523682 1.74909668 0.01047363 2.65014648 0.01586914 C3.59438477 0.0190918 4.53862305 0.02231445 5.51147461 0.02563477 C6.50469727 0.03401367 7.49791992 0.04239258 8.52124023 0.05102539 C9.51833008 0.05553711 10.51541992 0.06004883 11.54272461 0.06469727 C14.01478872 0.07652532 16.48673541 0.0930069 18.95874023 0.11352539 C18.62874023 1.76352539 18.29874023 3.41352539 17.95874023 5.11352539 C13.00874023 5.44352539 8.05874023 5.77352539 2.95874023 6.11352539 C2.29874023 8.75352539 1.63874023 11.39352539 0.95874023 14.11352539 C5.24874023 14.11352539 9.53874023 14.11352539 13.95874023 14.11352539 C13.95874023 15.43352539 13.95874023 16.75352539 13.95874023 18.11352539 C9.33874023 18.11352539 4.71874023 18.11352539 -0.04125977 18.11352539 C-0.37125977 21.08352539 -0.70125977 24.05352539 -1.04125977 27.11352539 C3.90874023 27.11352539 8.85874023 27.11352539 13.95874023 27.11352539 C13.62874023 28.76352539 13.29874023 30.41352539 12.95874023 32.11352539 C6.02874023 32.11352539 -0.90125977 32.11352539 -8.04125977 32.11352539 C-7.35125075 27.71630929 -6.65881963 23.31962513 -5.95996094 18.92382812 C-5.722814 17.42731552 -5.48713271 15.9305699 -5.25292969 14.43359375 C-4.91666609 12.28591439 -4.57519593 10.13911932 -4.23266602 7.99243164 C-4.02843018 6.69893799 -3.82419434 5.40544434 -3.61376953 4.07275391 C-2.85656631 0.15886896 -2.85656631 0.15886896 0 0 Z " fill="#8651BB" transform="translate(262.041259765625,153.886474609375)"/>
<path d="M0 0 C1.98 0 3.96 0 6 0 C7.0712828 6.02596573 7.09945415 11.88909517 7 18 C8.65 18.33 10.3 18.66 12 19 C12.84394252 15.3736845 13.0819319 12.09265987 13 8.375 C12.92916399 5.14310717 12.96885417 3.09343748 14 0 C15.98 0 17.96 0 20 0 C20 7.92 20 15.84 20 24 C16.16375 24.12375 16.16375 24.12375 12.25 24.25 C11.45110352 24.28641602 10.65220703 24.32283203 9.82910156 24.36035156 C6.6132046 24.41057464 4.3300818 24.18154499 1.5 22.625 C-0.87175282 18.47443256 -0.42057227 14.43417692 -0.25 9.75 C-0.23195313 8.81414062 -0.21390625 7.87828125 -0.1953125 6.9140625 C-0.14825673 4.60832985 -0.08253713 2.30469055 0 0 Z " fill="#F7F4FA" transform="translate(123,212)"/>
<path d="M0 0 C1.65 0 3.3 0 5 0 C5 3.3 5 6.6 5 10 C5.99 9.34 6.98 8.68 8 8 C14.95198903 7.33790581 14.95198903 7.33790581 18.23828125 9.4140625 C20.93290259 13.36936034 20.42912322 17.08590695 20.25 21.75 C20.23195313 22.63816406 20.21390625 23.52632812 20.1953125 24.44140625 C20.14827374 26.62870848 20.08257009 28.81379816 20 31 C18.02 31 16.04 31 14 31 C13.67 25.39 13.34 19.78 13 14 C11.35 13.67 9.7 13.34 8 13 C5.06552643 15.93447357 5.53841577 19.18259456 5.375 23.125 C5.33632813 23.87910156 5.29765625 24.63320312 5.2578125 25.41015625 C5.16348969 27.27303184 5.08065338 29.13648255 5 31 C3.35 31 1.7 31 0 31 C0 20.77 0 10.54 0 0 Z " fill="#FECD02" transform="translate(286,204)"/>
<path d="M0 0 C2.4375 1.375 2.4375 1.375 4 3 C4 3.66 4 4.32 4 5 C5.98 5 7.96 5 10 5 C10.33 4.01 10.66 3.02 11 2 C10.67 4.31 10.34 6.62 10 9 C5.71 9 1.42 9 -3 9 C-3.33 10.98 -3.66 12.96 -4 15 C-1.69 15 0.62 15 3 15 C1.55813953 19.56589147 1.55813953 19.56589147 -0.6875 21.3125 C-4.93733634 22.57596486 -8.47492388 22.82119483 -12.4375 20.6875 C-14.97243605 16.32740999 -14.73570548 11.90955935 -14 7 C-10.47902591 1.05076791 -6.81569303 -0.59786781 0 0 Z " fill="#C6AFE3" transform="translate(242,159)"/>
<path d="M0 0 C8.25 0 16.5 0 25 0 C25 1.65 25 3.3 25 5 C21.7 5.33 18.4 5.66 15 6 C13.35 14.25 11.7 22.5 10 31 C8.35 31 6.7 31 5 31 C5.47264953 22.10115016 6.96104717 13.66875541 9 5 C6.03 5 3.06 5 0 5 C0 3.35 0 1.7 0 0 Z " fill="#5441C3" transform="translate(198,154)"/>
<path d="M0 0 C1.98 0 3.96 0 6 0 C6 2.64 6 5.28 6 8 C7.32 8 8.64 8 10 8 C10 9.65 10 11.3 10 13 C8.68 13 7.36 13 6 13 C6 17.62 6 22.24 6 27 C7.32 27 8.64 27 10 27 C10 28.32 10 29.64 10 31 C3.9453125 31.1953125 3.9453125 31.1953125 2 31 C0 29 0 29 -0.1953125 25.0859375 C-0.18200376 23.51550649 -0.15813602 21.94513779 -0.125 20.375 C-0.11597656 19.57320312 -0.10695313 18.77140625 -0.09765625 17.9453125 C-0.07406223 15.96341477 -0.03819065 13.98167019 0 12 C-0.99 12 -1.98 12 -3 12 C-3 10.68 -3 9.36 -3 8 C-2.01 8 -1.02 8 0 8 C0 5.36 0 2.72 0 0 Z " fill="#FBCC11" transform="translate(312,204)"/>
<path d="M0 0 C1.65 0 3.3 0 5 0 C5 8.91 5 17.82 5 27 C9.62 27 14.24 27 19 27 C19 28.65 19 30.3 19 32 C12.73 32 6.46 32 0 32 C0 21.44 0 10.88 0 0 Z " fill="#F0C63D" transform="translate(206,204)"/>
<path d="M0 0 C0.3125 2.75 0.3125 2.75 0 6 C-0.804375 6.5671875 -1.60875 7.134375 -2.4375 7.71875 C-5.80666013 10.71812426 -5.9770953 13.47460034 -6.3125 17.75 C-6.38533203 18.44738281 -6.45816406 19.14476562 -6.53320312 19.86328125 C-6.70891809 21.57357353 -6.85722032 23.28664382 -7 25 C-8.98 25 -10.96 25 -13 25 C-13.1958691 21.18788097 -13.38029565 17.37529466 -13.5625 13.5625 C-13.61857422 12.47388672 -13.67464844 11.38527344 -13.73242188 10.26367188 C-13.78076172 9.22919922 -13.82910156 8.19472656 -13.87890625 7.12890625 C-13.9260376 6.17056885 -13.97316895 5.21223145 -14.02172852 4.22485352 C-14 2 -14 2 -13 1 C-11.38660441 0.57785707 -9.75847585 0.2111646 -8.125 -0.125 C-7.24070312 -0.31320313 -6.35640625 -0.50140625 -5.4453125 -0.6953125 C-3 -1 -3 -1 0 0 Z " fill="#FAF8FB" transform="translate(120,211)"/>
<path d="M0 0 C0.99 0 1.98 0 3 0 C3 3.3 3 6.6 3 10 C6.63 10 10.26 10 14 10 C14 10.99 14 11.98 14 13 C10.7 13.33 7.4 13.66 4 14 C3.67 22.91 3.34 31.82 3 41 C2.01 41 1.02 41 0 41 C0 31.76 0 22.52 0 13 C-3.63 13 -7.26 13 -11 13 C-11 12.01 -11 11.02 -11 10 C-7.37 10 -3.74 10 0 10 C0 6.7 0 3.4 0 0 Z " fill="#FDCD08" transform="translate(96,194)"/>
<path d="M0 0 C3.74030185 1.60298651 4.73158465 2.59737698 7 6 C7 7.32 7 8.64 7 10 C4.25 10.25 4.25 10.25 1 10 C0.360625 9.34 -0.27875 8.68 -0.9375 8 C-2.94422528 5.67318703 -2.94422528 5.67318703 -6.4375 5.4375 C-11.58098286 6.24962887 -13.36005767 9.03206921 -16.5625 12.875 C-17.2740625 13.431875 -17.2740625 13.431875 -18 14 C-20.1875 13.6875 -20.1875 13.6875 -22 13 C-21.51696726 8.68986172 -20.3982201 6.9764837 -17.0625 4.25 C-16.35222656 3.65703125 -15.64195312 3.0640625 -14.91015625 2.453125 C-10.38833535 -0.98678784 -5.48656873 -0.45192835 0 0 Z " fill="#5140C2" transform="translate(245,154)"/>
<path d="M0 0 C1.58272601 1.58272601 1.34735747 3.38034003 1.5625 5.5625 C1.64628906 6.38878906 1.73007812 7.21507812 1.81640625 8.06640625 C1.87699219 8.70449219 1.93757813 9.34257812 2 10 C1.01 10.33 0.02 10.66 -1 11 C-1 7.7 -1 4.4 -1 1 C-2.65 1 -4.3 1 -6 1 C-6 11.23 -6 21.46 -6 32 C-4.35 32 -2.7 32 -1 32 C-1.03480469 30.87980469 -1.06960938 29.75960937 -1.10546875 28.60546875 C-1.13360839 27.13282749 -1.16090837 25.66017002 -1.1875 24.1875 C-1.22520508 23.08051758 -1.22520508 23.08051758 -1.26367188 21.95117188 C-1.33756362 16.5078131 -1.33756362 16.5078131 0.34765625 13.97265625 C2 13 2 13 4.625 13.25 C7 14 7 14 8 15 C8.07325168 17.86267567 8.09238205 20.700719 8.0625 23.5625 C8.05798828 24.36880859 8.05347656 25.17511719 8.04882812 26.00585938 C8.03700518 28.00393756 8.01906914 30.00197783 8 32 C7.67 32 7.34 32 7 32 C7 26.72 7 21.44 7 16 C5.35 16.33 3.7 16.66 2 17 C1.93941406 18.14339844 1.87882812 19.28679687 1.81640625 20.46484375 C1.73201572 21.95574305 1.64736698 23.44662775 1.5625 24.9375 C1.50352539 26.06961914 1.50352539 26.06961914 1.44335938 27.22460938 C1.11328125 32.88671875 1.11328125 32.88671875 0 34 C-2.9375 34.1875 -2.9375 34.1875 -6 34 C-8 32 -8 32 -8.22705078 28.83544922 C-8.22673389 27.49182037 -8.21542181 26.1481659 -8.1953125 24.8046875 C-8.1924826 24.09724396 -8.18965271 23.38980042 -8.18673706 22.66091919 C-8.17553137 20.3987749 -8.15042679 18.13702485 -8.125 15.875 C-8.11497067 14.34245363 -8.10584474 12.80990106 -8.09765625 11.27734375 C-8.07559086 7.51807699 -8.04105896 3.75910536 -8 0 C-4.69676014 -1.10107995 -3.29495231 -0.86709271 0 0 Z " fill="#D3B8BE" transform="translate(292,203)"/>
<path d="M0 0 C7.22891566 -0.48192771 7.22891566 -0.48192771 10.25 1.40625 C12.92465501 5.37047082 12.42904798 9.08786607 12.25 13.75 C12.23195313 14.63816406 12.21390625 15.52632812 12.1953125 16.44140625 C12.14827374 18.62870848 12.08257009 20.81379816 12 23 C10.02 23 8.04 23 6 23 C5.98582031 21.80761719 5.97164063 20.61523438 5.95703125 19.38671875 C5.9101317 17.82027373 5.8618843 16.25386865 5.8125 14.6875 C5.80669922 13.90181641 5.80089844 13.11613281 5.79492188 12.30664062 C5.71018781 10.09414001 5.59099247 8.13543761 5 6 C2.56111754 4.10204633 2.56111754 4.10204633 0 3 C0 2.01 0 1.02 0 0 Z " fill="#FACB13" transform="translate(294,212)"/>
<path d="M0 0 C1.875 1.125 1.875 1.125 3 3 C3.42454541 6.32560568 3.31414524 8.33680449 1.875 11.375 C0 13 0 13 -3 13.5 C-6 13 -6 13 -7.875 11.375 C-9.31414524 8.33680449 -9.42454541 6.32560568 -9 3 C-6.79086995 -0.68188342 -4.01844539 -0.50230567 0 0 Z " fill="#CDB6DC" transform="translate(273,217)"/>
<path d="M0 0 C0.66 0 1.32 0 2 0 C1.34 1.65 0.68 3.3 0 5 C-2.64 5.33 -5.28 5.66 -8 6 C-8.33 14.58 -8.66 23.16 -9 32 C-11.475 32.495 -11.475 32.495 -14 33 C-15 32 -15 32 -15.11352539 29.31616211 C-15.10828857 28.14835205 -15.10305176 26.98054199 -15.09765625 25.77734375 C-15.09443359 24.51728516 -15.09121094 23.25722656 -15.08789062 21.95898438 C-15.07953403 20.61848891 -15.07106907 19.27799412 -15.0625 17.9375 C-15.0574866 16.59310058 -15.05292342 15.2486994 -15.04882812 13.90429688 C-15.03699488 10.60282059 -15.02050971 7.30143197 -15 4 C-18.3 4 -21.6 4 -25 4 C-25 3.67 -25 3.34 -25 3 C-21.37 3 -17.74 3 -14 3 C-14 12.24 -14 21.48 -14 31 C-13.01 31 -12.02 31 -11 31 C-11.00523682 30.18732666 -11.01047363 29.37465332 -11.01586914 28.53735352 C-11.03656994 24.87907678 -11.04963803 21.22081233 -11.0625 17.5625 C-11.07506836 15.6434082 -11.07506836 15.6434082 -11.08789062 13.68554688 C-11.09272461 11.86313477 -11.09272461 11.86313477 -11.09765625 10.00390625 C-11.10289307 8.87799072 -11.10812988 7.7520752 -11.11352539 6.59204102 C-11 4 -11 4 -10 3 C-8.31391034 2.92794489 -6.62499341 2.91613932 -4.9375 2.9375 C-4.01839844 2.94652344 -3.09929687 2.95554688 -2.15234375 2.96484375 C-1.44207031 2.97644531 -0.73179688 2.98804688 0 3 C0 2.01 0 1.02 0 0 Z " fill="#E3C179" transform="translate(110,204)"/>
<path d="M0 0 C-0.70114429 5.18029908 -1.58079647 10.30351936 -2.5625 15.4375 C-2.70107422 16.16904297 -2.83964844 16.90058594 -2.98242188 17.65429688 C-3.3202181 19.43646318 -3.65990988 21.21827002 -4 23 C-5.65 23 -7.3 23 -9 23 C-8.61464738 17.0980204 -8.15212591 11.21397451 -7.1875 5.375 C-7.05730469 4.57835937 -6.92710937 3.78171875 -6.79296875 2.9609375 C-6 1 -6 1 -4.05078125 -0.3359375 C-2 -1 -2 -1 0 0 Z " fill="#8852BB" transform="translate(212,162)"/>
<path d="M0 0 C0.87454834 0.00523682 1.74909668 0.01047363 2.65014648 0.01586914 C3.59438477 0.0190918 4.53862305 0.02231445 5.51147461 0.02563477 C6.50469727 0.03401367 7.49791992 0.04239258 8.52124023 0.05102539 C9.51833008 0.05553711 10.51541992 0.06004883 11.54272461 0.06469727 C14.01478872 0.07652532 16.48673541 0.0930069 18.95874023 0.11352539 C18.62874023 1.76352539 18.29874023 3.41352539 17.95874023 5.11352539 C16.89913086 5.16250977 15.83952148 5.21149414 14.74780273 5.26196289 C13.35975526 5.33699248 11.97173573 5.41254024 10.58374023 5.48852539 C9.53573242 5.53493164 9.53573242 5.53493164 8.46655273 5.58227539 C4.25688197 5.70852037 4.25688197 5.70852037 0.95874023 8.11352539 C-1.16625977 8.73852539 -1.16625977 8.73852539 -3.04125977 9.11352539 C-3.13891602 2.96118164 -3.13891602 2.96118164 -3.04125977 1.11352539 C-2.04125977 0.11352539 -2.04125977 0.11352539 0 0 Z " fill="#5341C3" transform="translate(262.041259765625,153.886474609375)"/>
<path d="M0 0 C2.15369529 1.72869942 2.93223129 2.67481528 3.50390625 5.41796875 C3.63603725 11.66336047 2.9219887 15.77608245 -1.19921875 20.60546875 C-3 22 -3 22 -6.875 22.5 C-7.90625 22.335 -8.9375 22.17 -10 22 C-10 19.69 -10 17.38 -10 15 C-6.535 14.505 -6.535 14.505 -3 14 C-1.43098141 7.01466204 -1.43098141 7.01466204 0 0 Z " fill="#C68E39" transform="translate(250,206)"/>
<path d="M0 0 C3.96 0.33 7.92 0.66 12 1 C13.10191901 5.40767604 12.58706842 6.8922935 11 11 C9.52093108 11.02689216 8.04172517 11.04634621 6.5625 11.0625 C5.32693359 11.07990234 5.32693359 11.07990234 4.06640625 11.09765625 C2 11 2 11 1 10 C0.5398875 6.67696525 0.29618788 3.34269182 0 0 Z " fill="#557288" transform="translate(234,227)"/>
<path d="M0 0 C6.93 0 13.86 0 21 0 C21 1.65 21 3.3 21 5 C15.72 5 10.44 5 5 5 C4.67 5.66 4.34 6.32 4 7 C3.01 6.34 2.02 5.68 1 5 C0.67 5.66 0.34 6.32 0 7 C0 4.69 0 2.38 0 0 Z " fill="#5542C3" transform="translate(144,154)"/>
<path d="M0 0 C0 0.99 0 1.98 0 3 C-0.48597656 3.43570313 -0.97195313 3.87140625 -1.47265625 4.3203125 C-4.24465075 7.3687975 -3.4585035 11.18104444 -3.33984375 15.1015625 C-3.13434941 18.15090166 -3.13434941 18.15090166 -1.5 21.25 C2.1996388 23.83974716 4.52758408 23.42594437 9 23 C9.99 22.67 10.98 22.34 12 22 C12.1875 24.375 12.1875 24.375 12 27 C8.77626323 29.14915785 7.73296326 29.38286803 4 29 C3.34 28.34 2.68 27.68 2 27 C-0.57061311 26.35232207 -0.57061311 26.35232207 -3 26 C-3.33 26.66 -3.66 27.32 -4 28 C-3.835 27.38125 -3.67 26.7625 -3.5 26.125 C-2.79415848 23.12517354 -2.99687437 22.0093769 -4 19 C-4.66 19 -5.32 19 -6 19 C-5.81255605 6.40717489 -5.81255605 6.40717489 -3.8203125 2.95703125 C-2.4375 1.625 -2.4375 1.625 0 0 Z " fill="#D0B5BD" transform="translate(263,211)"/>
<path d="M0 0 C0.33 0.66 0.66 1.32 1 2 C1.66 2.33 2.32 2.66 3 3 C2.34 3 1.68 3 1 3 C1.03480469 3.69867188 1.06960937 4.39734375 1.10546875 5.1171875 C1.13253906 6.02726563 1.15960938 6.93734375 1.1875 7.875 C1.22230469 8.77992188 1.25710937 9.68484375 1.29296875 10.6171875 C1.19628906 11.40351563 1.09960938 12.18984375 1 13 C0.01 13.66 -0.98 14.32 -2 15 C-4.5625 14.125 -4.5625 14.125 -7 13 C-7.66 13 -8.32 13 -9 13 C-9.22786458 10.98177083 -9.45572917 8.96354167 -9.68359375 6.9453125 C-9.91292961 4.92595684 -9.91292961 4.92595684 -11 3 C-9.02 3.66 -7.04 4.32 -5 5 C-4.67 7.31 -4.34 9.62 -4 12 C-4 11.67 -4 11.34 -4 11 C-4 9 -4 7 -4 5 C-3.01 5 -2.02 5 -1 5 C-0.67 3.35 -0.34 1.7 0 0 Z " fill="#B6A2E5" transform="translate(187,248)"/>
<path d="M0 0 C0.99 0.66 1.98 1.32 3 2 C4.65549531 2.38499891 6.3222433 2.72793135 8 3 C8 3.33 8 3.66 8 4 C6.02 4.66 4.04 5.32 2 6 C2 7.65 2 9.3 2 11 C1.01 10.67 0.02 10.34 -1 10 C-1 9.34 -1 8.68 -1 8 C-2.65 8 -4.3 8 -6 8 C-6.33 6.35 -6.66 4.7 -7 3 C-5.35 2.67 -3.7 2.34 -2 2 C-3.98 2 -5.96 2 -8 2 C-8 1.34 -8 0.68 -8 0 C-5.08931154 -1.45534423 -3.1172005 -0.69977971 0 0 Z " fill="#B3A0E4" transform="translate(169,251)"/>
<path d="M0 0 C1.216875 0.144375 2.43375 0.28875 3.6875 0.4375 C1.6875 3.10416667 -0.3125 5.77083333 -2.3125 8.4375 C-3.07046875 9.55125 -3.07046875 9.55125 -3.84375 10.6875 C-5.3125 12.4375 -5.3125 12.4375 -8 12.6875 C-8.763125 12.605 -9.52625 12.5225 -10.3125 12.4375 C-9.74599888 6.20598771 -6.83135556 -0.02422467 0 0 Z " fill="#7551BF" transform="translate(193.3125,153.5625)"/>
<path d="M0 0 C0.33 0 0.66 0 1 0 C1 4.29 1 8.58 1 13 C-5 13 -5 13 -6.9375 11.8125 C-8 10 -8 10 -7.75 7.375 C-7 5 -7 5 -6 4 C-4.33382885 3.95936168 -2.66611905 3.957279 -1 4 C-0.67 2.68 -0.34 1.36 0 0 Z " fill="#2A3ECB" transform="translate(145,248)"/>
<path d="M0 0 C3.0625 0.1875 3.0625 0.1875 5.0625 2.1875 C4.73278521 5.48464793 4.4398161 6.8101839 2.0625 9.1875 C-1.23464793 8.85778521 -2.5601839 8.5648161 -4.9375 6.1875 C-4.21574268 0.26908996 -4.21574268 0.26908996 0 0 Z " fill="#3546CD" transform="translate(196.9375,251.8125)"/>
<path d="M0 0 C1.98 0 3.96 0 6 0 C5.91266424 1.60517097 5.80447776 3.20921662 5.6875 4.8125 C5.62949219 5.70582031 5.57148438 6.59914062 5.51171875 7.51953125 C4.9290745 10.34379918 4.3289646 11.33487329 2 13 C1.01 13 0.02 13 -1 13 C-0.67 8.71 -0.34 4.42 0 0 Z " fill="#7953C0" transform="translate(305,154)"/>
<path d="M0 0 C1.134375 0.020625 2.26875 0.04125 3.4375 0.0625 C3.7675 2.3725 4.0975 4.6825 4.4375 7.0625 C-0.0175 8.5475 -0.0175 8.5475 -4.5625 10.0625 C-4.66015625 3.12890625 -4.66015625 3.12890625 -4.5625 1.0625 C-3.5625 0.0625 -3.5625 0.0625 0 0 Z " fill="#6548C1" transform="translate(289.5625,153.9375)"/>
<path d="M0 0 C0.66 0 1.32 0 2 0 C2 0.66 2 1.32 2 2 C3.32 1.34 4.64 0.68 6 0 C6.33 1.65 6.66 3.3 7 5 C5.35 5.33 3.7 5.66 2 6 C1.67 6.99 1.34 7.98 1 9 C1 8.01 1 7.02 1 6 C0.34 6 -0.32 6 -1 6 C-1 8.31 -1 10.62 -1 13 C-1.33 13 -1.66 13 -2 13 C-2.103125 12.05125 -2.20625 11.1025 -2.3125 10.125 C-2.68539295 6.70892499 -2.68539295 6.70892499 -6 5 C-6 3.68 -6 2.36 -6 1 C-3 2 -3 2 -2 4 C-1.34 2.68 -0.68 1.36 0 0 Z " fill="#F6D897" transform="translate(241,215)"/>
<path d="M0 0 C1.58272601 1.58272601 1.34735747 3.38034003 1.5625 5.5625 C1.64628906 6.38878906 1.73007812 7.21507812 1.81640625 8.06640625 C1.87699219 8.70449219 1.93757813 9.34257812 2 10 C1.01 10.33 0.02 10.66 -1 11 C-1 7.7 -1 4.4 -1 1 C-2.98 1 -4.96 1 -7 1 C-7 11.23 -7 21.46 -7 32 C-7.33 32 -7.66 32 -8 32 C-8 21.44 -8 10.88 -8 0 C-4.69676014 -1.10107995 -3.29495231 -0.86709271 0 0 Z " fill="#D3BDDA" transform="translate(292,203)"/>
<path d="M0 0 C2.31 0 4.62 0 7 0 C9.125 4.625 9.125 4.625 8 8 C6.1875 8.8125 6.1875 8.8125 4 9 C1.75 8.0625 1.75 8.0625 0 7 C0 4.69 0 2.38 0 0 Z " fill="#6447C1" transform="translate(113,154)"/>
<path d="M0 0 C0.8971875 0.5259375 0.8971875 0.5259375 1.8125 1.0625 C0.85520084 2.18838014 -0.10337895 3.3131715 -1.0625 4.4375 C-1.59617188 5.06398437 -2.12984375 5.69046875 -2.6796875 6.3359375 C-3.80182007 7.62086651 -4.98121975 8.85621975 -6.1875 10.0625 C-8.3125 9.6875 -8.3125 9.6875 -10.1875 9.0625 C-9.70903935 4.75635411 -8.52823619 2.81369451 -5.1875 0.0625 C-2.1875 -0.9375 -2.1875 -0.9375 0 0 Z " fill="#6F4DC0" transform="translate(233.1875,157.9375)"/>
<path d="M0 0 C4.55384615 -0.36923077 4.55384615 -0.36923077 6.8125 1.5 C7.204375 1.995 7.59625 2.49 8 3 C7.67 3.99 7.34 4.98 7 6 C5.02 6.33 3.04 6.66 1 7 C3.97 7.495 3.97 7.495 7 8 C6.67 8.66 6.34 9.32 6 10 C3.625 10.125 3.625 10.125 1 10 C0.34 9.34 -0.32 8.68 -1 8 C-0.96712417 5.27130593 -0.43602229 2.7033382 0 0 Z " fill="#D6CEED" transform="translate(267,251)"/>
<path d="M0 0 C0.66 0 1.32 0 2 0 C1.34 1.65 0.68 3.3 0 5 C-2.64 5.33 -5.28 5.66 -8 6 C-8.33 14.58 -8.66 23.16 -9 32 C-9.33 32 -9.66 32 -10 32 C-10 22.43 -10 12.86 -10 3 C-6.7 3 -3.4 3 0 3 C0 2.01 0 1.02 0 0 Z M-14 32 C-10 33 -10 33 -10 33 Z " fill="#D2BAD4" transform="translate(110,204)"/>
<path d="M0 0 C1.9375 1 1.9375 1 3.1875 3.5625 C3.435 4.366875 3.6825 5.17125 3.9375 6 C1.6275 6.33 -0.6825 6.66 -3.0625 7 C-0.0925 7.495 -0.0925 7.495 2.9375 8 C2.6075 8.66 2.2775 9.32 1.9375 10 C-0.4375 10.125 -0.4375 10.125 -3.0625 10 C-5.0625 8 -5.0625 8 -5.375 5.5625 C-5.0625 3 -5.0625 3 -3.8125 1.125 C-2.0625 0 -2.0625 0 0 0 Z " fill="#D7CFEE" transform="translate(242.0625,251)"/>
<path d="M0 0 C2.5 2.25 2.5 2.25 5 5 C5 6.32 5 7.64 5 9 C2.25 9.25 2.25 9.25 -1 9 C-2.3743291 7.70896357 -3.70896357 6.3743291 -5 5 C-7.64184541 4.20318682 -7.64184541 4.20318682 -10 4 C-10 3.67 -10 3.34 -10 3 C-3.25 1.875 -3.25 1.875 -1 3 C-0.67 2.01 -0.34 1.02 0 0 Z " fill="#6649C0" transform="translate(247,155)"/>
<path d="M0 0 C2.31 0 4.62 0 7 0 C8.76462683 3.08809695 9 4.23312136 9 8 C7.02 8.99 7.02 8.99 5 10 C3.35 6.7 1.7 3.4 0 0 Z " fill="#5F47C3" transform="translate(168,154)"/>
<path d="M0 0 C0.804375 0.185625 1.60875 0.37125 2.4375 0.5625 C3.283125 0.706875 4.12875 0.85125 5 1 C5.33 0.67 5.66 0.34 6 0 C8.69654854 -0.07319621 11.36691458 -0.09242537 14.0625 -0.0625 C14.82111328 -0.05798828 15.57972656 -0.05347656 16.36132812 -0.04882812 C18.24091871 -0.0370068 20.12046899 -0.01907078 22 0 C22 0.33 22 0.66 22 1 C17.05 1 12.1 1 7 1 C6.34 2.98 5.68 4.96 5 7 C4.01 7.33 3.02 7.66 2 8 C1.34 7.67 0.68 7.34 0 7 C0 4.69 0 2.38 0 0 Z " fill="#7E5FC4" transform="translate(143,159)"/>
<path d="M0 0 C1.99954746 -0.04254356 4.00041636 -0.04080783 6 0 C7 1 7 1 7.09765625 2.84765625 C7.04882812 5.92382812 7.04882812 5.92382812 7 9 C5.02 9 3.04 9 1 9 C0.34 7.68 -0.32 6.36 -1 5 C1.1385485 2.8614515 2.13275314 2.57344937 5 2 C3.35 2 1.7 2 0 2 C0 1.34 0 0.68 0 0 Z " fill="#515AD2" transform="translate(171,252)"/>
<path d="M0 0 C0.33 0 0.66 0 1 0 C1 2.64 1 5.28 1 8 C-1.97 7.67 -4.94 7.34 -8 7 C-8 5.35 -8 3.7 -8 2 C-6.865625 1.855625 -5.73125 1.71125 -4.5625 1.5625 C-1.19222799 1.38828522 -1.19222799 1.38828522 0 0 Z " fill="#A798E2" transform="translate(136,253)"/>
<path d="M0 0 C0.33 0.99 0.66 1.98 1 3 C6.94 3 12.88 3 19 3 C19 2.01 19 1.02 19 0 C19.66 0.33 20.32 0.66 21 1 C20.67 2.32 20.34 3.64 20 5 C13.07 5 6.14 5 -1 5 C-0.67 3.35 -0.34 1.7 0 0 Z " fill="#8146B6" transform="translate(140,181)"/>
<path d="M0 0 C3.125 0.25 3.125 0.25 5 1.625 C6.125 3.25 6.125 3.25 6.125 5.25 C2.165 5.25 -1.795 5.25 -5.875 5.25 C-3.39772727 0.29545455 -3.39772727 0.29545455 0 0 Z " fill="#D5C4E8" transform="translate(158.875,215.75)"/>
<path d="M0 0 C1.65 0 3.3 0 5 0 C5 2.31 5 4.62 5 7 C3.02 7.99 1.04 8.98 -1 10 C-1.125 3.375 -1.125 3.375 0 0 Z " fill="#5743C2" transform="translate(133,154)"/>
<path d="M0 0 C0.66 0.33 1.32 0.66 2 1 C2.05389087 2.95803507 2.09274217 4.91648909 2.125 6.875 C2.14820313 7.96554688 2.17140625 9.05609375 2.1953125 10.1796875 C2 13 2 13 0 15 C-0.66 14.67 -1.32 14.34 -2 14 C-1.03644647 4.58997722 -1.03644647 4.58997722 0 0 Z " fill="#DF9A2E" transform="translate(250,206)"/>
<path d="M0 0 C0.33 1.32 0.66 2.64 1 4 C1.99 4 2.98 4 4 4 C3.34 5.65 2.68 7.3 2 9 C1.01 9 0.02 9 -1 9 C-1.66 8.34 -2.32 7.68 -3 7 C-2.75 3.9375 -2.75 3.9375 -2 1 C-1.34 0.67 -0.68 0.34 0 0 Z " fill="#D1B29C" transform="translate(254,144)"/>
<path d="M0 0 C1.32 0.33 2.64 0.66 4 1 C3.36578125 1.33644531 2.7315625 1.67289063 2.078125 2.01953125 C-0.87271154 4.83170066 -0.90294744 7.81569485 -1.25 11.6875 C-1.32734375 12.38939453 -1.4046875 13.09128906 -1.484375 13.81445312 C-1.67233049 15.54129418 -1.83832477 17.27050053 -2 19 C-3.98 19 -5.96 19 -8 19 C-8 18.67 -8 18.34 -8 18 C-6.35 18 -4.7 18 -3 18 C-3.03480469 17.03578125 -3.06960937 16.0715625 -3.10546875 15.078125 C-3.13253906 13.81484375 -3.15960938 12.5515625 -3.1875 11.25 C-3.22230469 9.99703125 -3.25710937 8.7440625 -3.29296875 7.453125 C-2.98802939 3.85890643 -2.45605371 2.55274874 0 0 Z " fill="#E0D5EF" transform="translate(115,217)"/>
<path d="M0 0 C-1.38096786 2.76193573 -3.32884866 3.02905576 -6.078125 4.13671875 C-8.96984851 5.43564333 -11.4155406 7.17196774 -14 9 C-11.71647031 1.5266301 -7.6121741 -0.59703326 0 0 Z " fill="#B29CD8" transform="translate(242,159)"/>
<path d="M0 0 C2.64 0 5.28 0 8 0 C6.8125 2.5 6.8125 2.5 5 5 C2.5 5.25 2.5 5.25 0 5 C-0.99 5.33 -1.98 5.66 -3 6 C-2 4 -1 2 0 0 Z " fill="#5845C3" transform="translate(189,154)"/>
<path d="M0 0 C1.98 0.66 3.96 1.32 6 2 C6.33 4.64 6.66 7.28 7 10 C5.35 10 3.7 10 2 10 C1.77213542 7.98177083 1.54427083 5.96354167 1.31640625 3.9453125 C1.08707039 1.92595684 1.08707039 1.92595684 0 0 Z " fill="#A798E3" transform="translate(176,251)"/>
<path d="M0 0 C0.66 0 1.32 0 2 0 C2 1.32 2 2.64 2 4 C2.99 4 3.98 4 5 4 C5 9.28 5 14.56 5 20 C4.67 20 4.34 20 4 20 C4 15.38 4 10.76 4 6 C2.35 6.33 0.7 6.66 -1 7 C-0.67 4.69 -0.34 2.38 0 0 Z " fill="#D2BACB" transform="translate(307,212)"/>
<path d="M0 0 C1.2065625 0.0309375 1.2065625 0.0309375 2.4375 0.0625 C2.1075 0.7225 1.7775 1.3825 1.4375 2.0625 C0.7775 1.7325 0.1175 1.4025 -0.5625 1.0625 C-0.5625 3.7025 -0.5625 6.3425 -0.5625 9.0625 C-6.71484375 8.4765625 -6.71484375 8.4765625 -8.5625 8.0625 C-8.8925 7.4025 -9.2225 6.7425 -9.5625 6.0625 C-6.9225 6.0625 -4.2825 6.0625 -1.5625 6.0625 C-2.2225 4.4125 -2.8825 2.7625 -3.5625 1.0625 C-2.5625 0.0625 -2.5625 0.0625 0 0 Z " fill="#B7A2E2" transform="translate(247.5625,250.9375)"/>
<path d="M0 0 C1.67542976 0.28604898 3.34385343 0.61781233 5 1 C5 2.65 5 4.3 5 6 C3.35 6 1.7 6 0 6 C-0.38218767 4.34385343 -0.71395102 2.67542976 -1 1 C-0.67 0.67 -0.34 0.34 0 0 Z " fill="#B6A2E5" transform="translate(195,253)"/>
<path d="M0 0 C1.67542976 0.28604898 3.34385343 0.61781233 5 1 C4.67 2.65 4.34 4.3 4 6 C2.35 6 0.7 6 -1 6 C-1.042721 4.33388095 -1.04063832 2.66617115 -1 1 C-0.67 0.67 -0.34 0.34 0 0 Z " fill="#B4A0E4" transform="translate(140,253)"/>
<path d="M0 0 C0.66 0 1.32 0 2 0 C2 0.66 2 1.32 2 2 C2.66 2 3.32 2 4 2 C4 2.66 4 3.32 4 4 C3.34 4 2.68 4 2 4 C2 5.98 2 7.96 2 10 C2.99 10 3.98 10 5 10 C5 10.66 5 11.32 5 12 C3.68 12 2.36 12 1 12 C0.63597631 10.56496445 0.28413409 9.12683494 -0.0625 7.6875 C-0.25972656 6.88699219 -0.45695312 6.08648437 -0.66015625 5.26171875 C-1 3 -1 3 0 0 Z " fill="#DED7EF" transform="translate(260,249)"/>
<path d="M0 0 C0.66 0 1.32 0 2 0 C2 0.66 2 1.32 2 2 C2.99 2.33 3.98 2.66 5 3 C4.1875 4.9375 4.1875 4.9375 3 7 C2.01 7.33 1.02 7.66 0 8 C-0.99 6.02 -1.98 4.04 -3 2 C-2.01 2 -1.02 2 0 2 C0 1.34 0 0.68 0 0 Z " fill="#E5C592" transform="translate(330,188)"/>
<path d="M0 0 C2.31 0 4.62 0 7 0 C7 1.32 7 2.64 7 4 C4.69 4.66 2.38 5.32 0 6 C0 4.02 0 2.04 0 0 Z " fill="#5442C4" transform="translate(113,154)"/>
<path d="M0 0 C0.33 0.66 0.66 1.32 1 2 C1.66 2.33 2.32 2.66 3 3 C3 4.98 3 6.96 3 9 C1.35 8.67 -0.3 8.34 -2 8 C-2 6.02 -2 4.04 -2 2 C-1.34 2 -0.68 2 0 2 C0 1.34 0 0.68 0 0 Z " fill="#B09EE0" transform="translate(264,251)"/>
<path d="M0 0 C2.31 0 4.62 0 7 0 C7 1.32 7 2.64 7 4 C4.69 4.33 2.38 4.66 0 5 C0 3.35 0 1.7 0 0 Z " fill="#5444C4" transform="translate(286,154)"/>
<path d="M0 0 C0.66 0.33 1.32 0.66 2 1 C2 1.66 2 2.32 2 3 C1.01 3.495 1.01 3.495 0 4 C-0.40729228 6.32156597 -0.74438677 8.6568787 -1 11 C-1.66 11 -2.32 11 -3 11 C-3 7.7 -3 4.4 -3 1 C-2.01 0.67 -1.02 0.34 0 0 Z " fill="#D8D1EE" transform="translate(280,250)"/>
<path d="M0 0 C1.98 0 3.96 0 6 0 C5.67 1.98 5.34 3.96 5 6 C4.67 5.34 4.34 4.68 4 4 C2.02 4.99 2.02 4.99 0 6 C0 4.02 0 2.04 0 0 Z " fill="#5644C3" transform="translate(305,154)"/>
<path d="M0 0 C0.33 0 0.66 0 1 0 C1 2.64 1 5.28 1 8 C-5.15234375 7.4140625 -5.15234375 7.4140625 -7 7 C-7.33 6.34 -7.66 5.68 -8 5 C-4.535 4.505 -4.535 4.505 -1 4 C-0.67 2.68 -0.34 1.36 0 0 Z " fill="#B5A1E2" transform="translate(275,252)"/>
<path d="M0 0 C0.66 0 1.32 0 2 0 C2.12375 0.639375 2.2475 1.27875 2.375 1.9375 C2.684375 2.9584375 2.684375 2.9584375 3 4 C3.66 4.33 4.32 4.66 5 5 C3.625 6.5 3.625 6.5 2 8 C1.34 8 0.68 8 0 8 C-1.625 6 -1.625 6 -3 4 C-2.34 3.67 -1.68 3.34 -1 3 C-0.67 2.01 -0.34 1.02 0 0 Z " fill="#F8CB30" transform="translate(152,194)"/>
<path d="M0 0 C2 3 2 3 1.625 5.6875 C1.41875 6.450625 1.2125 7.21375 1 8 C-0.32 7.67 -1.64 7.34 -3 7 C-3 6.01 -3 5.02 -3 4 C-3.66 3.67 -4.32 3.34 -5 3 C-4.360625 2.87625 -3.72125 2.7525 -3.0625 2.625 C-2.0415625 2.315625 -2.0415625 2.315625 -1 2 C-0.67 1.34 -0.34 0.68 0 0 Z " fill="#7853BF" transform="translate(294,159)"/>
<path d="M0 0 C0.625 1.875 0.625 1.875 1 4 C-1 6 -1 6 -4.125 6.125 C-5.548125 6.063125 -5.548125 6.063125 -7 6 C-7 4.35 -7 2.7 -7 1 C-6.67 1.66 -6.34 2.32 -6 3 C-4.02 3 -2.04 3 0 3 C0 2.01 0 1.02 0 0 Z " fill="#B69EDA" transform="translate(252,161)"/>
<path d="M0 0 C0.66 0.33 1.32 0.66 2 1 C1.67 2.65 1.34 4.3 1 6 C-0.65 6 -2.3 6 -4 6 C-4 4.68 -4 3.36 -4 2 C-2.125 0.9375 -2.125 0.9375 0 0 Z " fill="#7A53C0" transform="translate(210,161)"/>
<path d="M0 0 C0.66 0 1.32 0 2 0 C2 0.66 2 1.32 2 2 C3.32 1.34 4.64 0.68 6 0 C6.33 1.65 6.66 3.3 7 5 C6.01 5.495 6.01 5.495 5 6 C4.34 5.67 3.68 5.34 3 5 C3 4.34 3 3.68 3 3 C2.01 3.33 1.02 3.66 0 4 C0 2.68 0 1.36 0 0 Z " fill="#F5C76E" transform="translate(241,215)"/>
<path d="M0 0 C0.33 0.66 0.66 1.32 1 2 C1.66 2 2.32 2 3 2 C2.979375 2.763125 2.95875 3.52625 2.9375 4.3125 C2.87057159 7.10185786 2.87057159 7.10185786 4 10 C2.68 10 1.36 10 0 10 C0 6.7 0 3.4 0 0 Z " fill="#B19FE4" transform="translate(158,251)"/>
<path d="M0 0 C2.02350324 3.03525486 2.32124018 4.19426202 2.625 7.6875 C2.69976562 8.49574219 2.77453125 9.30398438 2.8515625 10.13671875 C2.90054688 10.75160156 2.94953125 11.36648438 3 12 C2.01 12.33 1.02 12.66 0 13 C0 8.71 0 4.42 0 0 Z " fill="#BEA6E4" transform="translate(147,248)"/>
<path d="M0 0 C0.33 1.98 0.66 3.96 1 6 C-0.98 5.34 -2.96 4.68 -5 4 C-5 3.01 -5 2.02 -5 1 C-3 0 -3 0 0 0 Z " fill="#7852BF" transform="translate(123,161)"/>
<path d="M0 0 C0.33 0.99 0.66 1.98 1 3 C2.65 3.33 4.3 3.66 6 4 C4 7 4 7 1.875 7.6875 C1.25625 7.790625 0.6375 7.89375 0 8 C0 5.36 0 2.72 0 0 Z " fill="#664AC2" transform="translate(259,155)"/>
<path d="M0 0 C1.485 0.99 1.485 0.99 3 2 C3.6875 5.625 3.6875 5.625 4 9 C2.68 9 1.36 9 0 9 C0 6.03 0 3.06 0 0 Z " fill="#B7A3E6" transform="translate(190,252)"/>
<path d="M0 0 C2 2 2 2 2.046875 3.91015625 C1.94890625 4.62042969 1.8509375 5.33070313 1.75 6.0625 C1.61851562 7.13177734 1.61851562 7.13177734 1.484375 8.22265625 C1.32453125 8.80917969 1.1646875 9.39570313 1 10 C0.01 10.495 0.01 10.495 -1 11 C-2.25 3.375 -2.25 3.375 0 0 Z " fill="#B6A3E3" transform="translate(258,250)"/>
<path d="M0 0 C0 1.65 0 3.3 0 5 C-0.99 5.33 -1.98 5.66 -3 6 C-5.1875 4.5625 -5.1875 4.5625 -7 3 C-1.125 0 -1.125 0 0 0 Z " fill="#C7AED5" transform="translate(275,233)"/>
<path d="M0 0 C0.99 0.33 1.98 0.66 3 1 C3 1.66 3 2.32 3 3 C3.66 3 4.32 3 5 3 C5.33 2.01 5.66 1.02 6 0 C6.66 0.33 7.32 0.66 8 1 C7.34 2.65 6.68 4.3 6 6 C4.125 5.8125 4.125 5.8125 2 5 C0.75 2.4375 0.75 2.4375 0 0 Z " fill="#DDC4CB" transform="translate(149,199)"/>
<path d="M0 0 C0.33 0 0.66 0 1 0 C1 1.98 1 3.96 1 6 C-0.98 6 -2.96 6 -5 6 C-4.67 4.35 -4.34 2.7 -4 1 C-3.67 1.99 -3.34 2.98 -3 4 C-2.01 4 -1.02 4 0 4 C0 2.68 0 1.36 0 0 Z " fill="#844BB8" transform="translate(285,180)"/>
<path d="M0 0 C0.33 0.66 0.66 1.32 1 2 C1.66 2.33 2.32 2.66 3 3 C2.34 3 1.68 3 1 3 C1.44703986 7.47883696 1.44703986 7.47883696 4 11 C2.68 10.67 1.36 10.34 0 10 C0 7.69 0 5.38 0 3 C-0.66 3 -1.32 3 -2 3 C-2 2.34 -2 1.68 -2 1 C-1.34 0.67 -0.68 0.34 0 0 Z " fill="#263BC9" transform="translate(182,250)"/>
<path d="M0 0 C0.66 0 1.32 0 2 0 C2.33 1.98 2.66 3.96 3 6 C2.01 6.495 2.01 6.495 1 7 C1 6.01 1 5.02 1 4 C0.01 4 -0.98 4 -2 4 C-1.34 2.68 -0.68 1.36 0 0 Z " fill="#6A4AC0" transform="translate(307,158)"/>
<path d="M0 0 C-0.33 0.66 -0.66 1.32 -1 2 C-2.75 2.5625 -2.75 2.5625 -5 3 C-5.9075 3.185625 -6.815 3.37125 -7.75 3.5625 C-8.4925 3.706875 -9.235 3.85125 -10 4 C-7.10257116 -0.27715685 -5.06635533 -1.57231717 0 0 Z " fill="#684BC1" transform="translate(193,159)"/>
<path d="M0 0 C0.33 0 0.66 0 1 0 C1 3.3 1 6.6 1 10 C0.67 9.34 0.34 8.68 0 8 C-0.66 7.67 -1.32 7.34 -2 7 C-2.125 4.625 -2.125 4.625 -2 2 C-1.34 1.34 -0.68 0.68 0 0 Z " fill="#B9A4E6" transform="translate(203,251)"/>
<path d="M0 0 C1.65 0 3.3 0 5 0 C5.33 0.66 5.66 1.32 6 2 C3.8614515 4.1385485 2.86724686 4.42655063 0 5 C0 3.35 0 1.7 0 0 Z " fill="#6446C0" transform="translate(207,158)"/>
<path d="M0 0 C1.32 0.33 2.64 0.66 4 1 C4 2.32 4 3.64 4 5 C2.02 5.99 2.02 5.99 0 7 C0 4.69 0 2.38 0 0 Z " fill="#6749C0" transform="translate(132,157)"/>
<path d="M0 0 C2.31 0 4.62 0 7 0 C6.38125 0.185625 5.7625 0.37125 5.125 0.5625 C1.94397134 2.71437233 1.80548053 5.37533763 1 9 C0.67 9 0.34 9 0 9 C0 6.03 0 3.06 0 0 Z " fill="#283ECA" transform="translate(204,252)"/>
<path d="M0 0 C0.66 0 1.32 0 2 0 C2.33 2.31 2.66 4.62 3 7 C2.01 7 1.02 7 0 7 C0 4.69 0 2.38 0 0 Z " fill="#F1B650" transform="translate(240,221)"/>
<path d="M0 0 C1.32 0.33 2.64 0.66 4 1 C3.0409375 1.556875 3.0409375 1.556875 2.0625 2.125 C-0.63858072 4.58052793 -0.68407005 6.44578805 -1 10 C-1.33 10 -1.66 10 -2 10 C-2.25 3.375 -2.25 3.375 0 0 Z " fill="#CEBBE5" transform="translate(115,217)"/>
<path d="M0 0 C0 0.66 0 1.32 0 2 C-2.2727675 3.49524178 -4.5679943 4.78399715 -7 6 C-6.67 4.35 -6.34 2.7 -6 1 C-3.92446352 0.4465236 -2.15634036 0 0 0 Z " fill="#F5CA71" transform="translate(238,204)"/>
</svg>
